<?xml version="1.0" encoding="UTF-8" standalone="no"?>
<!-- Created with Inkscape (http://www.inkscape.org/) -->

<svg
   width="260mm"
   height="450mm"
   viewBox="0 0 260 450"
   version="1.1"
   id="svg1"
   xml:space="preserve"
   inkscape:export-filename="200asientosetiquetasfilas.svg"
   inkscape:export-xdpi="96"
   inkscape:export-ydpi="96"
   xmlns:inkscape="http://www.inkscape.org/namespaces/inkscape"
   xmlns:sodipodi="http://sodipodi.sourceforge.net/DTD/sodipodi-0.dtd"
   xmlns="http://www.w3.org/2000/svg"
   xmlns:svg="http://www.w3.org/2000/svg"><sodipodi:namedview
     id="namedview1"
     pagecolor="#ffffff"
     bordercolor="#000000"
     borderopacity="0.25"
     inkscape:showpageshadow="2"
     inkscape:pageopacity="0.0"
     inkscape:pagecheckerboard="0"
     inkscape:deskcolor="#d1d1d1"
     inkscape:document-units="mm" /><defs
     id="defs1" /><g
     inkscape:label="Capa 1"
     inkscape:groupmode="layer"
     id="layer1"><path
       style="fill:#e9afdd;stroke-width:4.14147"
       d="m 86.087326,63.319894 c -0.30092,-0.14835 -0.6567,-0.56301 -0.73978,-0.86219 -0.0474,-0.17086 -0.0703,-2.53768 -0.0705,-7.30624 l -2.7e-4,-7.05352 0.18483,-0.35379 c 0.13456,-0.25758 0.27256,-0.40804 0.50744,-0.55326 l 0.32262,-0.19946 45.778094,-0.0194 c 25.17797,-0.0107 45.93419,-10e-4 46.12495,0.0212 0.44222,0.0518 0.91639,0.36362 1.10376,0.72578 0.13562,0.26209 0.13708,0.33173 0.15515,7.40833 0.0202,7.89335 0.0427,7.44848 -0.39969,7.90278 -0.11762,0.1208 -0.30965,0.25988 -0.42672,0.30908 -0.17818,0.0749 -7.71363,0.0892 -46.26902,0.0879 -42.071904,-10e-4 -46.074714,-0.0107 -46.270714,-0.10729 z"
       id="path45" /><g
       id="g43"
       transform="matrix(0.26458333,0,0,0.26458333,-56.726073,28.615554)"><path
         style="fill:#000000;stroke-width:3.91319"
         d="m 596.34375,100.53125 v -15.8125 h 9.125 9.125 v 2.5625 2.5625 h -6 -6 v 3.96875 3.96875 h 5.34375 5.34375 v 2.5 2.5 h -5.34375 -5.34375 V 107 v 4.21875 h 6 6 v 2.5625 2.5625 h -9.125 -9.125 z"
         id="path27" /><path
         style="fill:#000000;stroke-width:3.91319"
         d="m 630.0625,116.61691 c -2.51818,-0.20913 -4.72985,-0.91786 -6.46875,-2.07292 -1.74835,-1.16134 -3.05687,-2.88486 -3.59188,-4.73109 -0.17416,-0.60099 -0.31664,-1.42611 -0.36431,-2.10978 l -0.0294,-0.42187 h 3.36661 3.36662 l 0.025,0.14062 c 0.26762,1.50354 0.50437,2.0272 1.25165,2.76856 0.56623,0.56174 1.08933,0.8709 1.85172,1.09441 0.71235,0.20883 2.35937,0.24307 3.21773,0.0669 1.51484,-0.31091 2.67151,-1.2393 3.10394,-2.49135 0.12599,-0.36477 0.14557,-0.53885 0.14254,-1.26664 -0.003,-0.73242 -0.0229,-0.89323 -0.1504,-1.21875 -0.27616,-0.70509 -0.6128,-1.12871 -1.33465,-1.67946 -0.85265,-0.65056 -1.80223,-1.03689 -4.61889,-1.87915 -4.78875,-1.43196 -6.43256,-2.1915 -7.8961,-3.648468 -1.52996,-1.523092 -2.11533,-2.934571 -2.19507,-5.292922 -0.0404,-1.195184 0.0544,-2.065 0.32818,-3.009645 1.01595,-3.505844 4.15513,-5.851814 8.59167,-6.420728 3.10807,-0.39856 6.15649,0.03457 8.48572,1.205685 1.25421,0.630606 2.73788,1.903224 3.43216,2.943934 0.81514,1.221889 1.3454,2.71113 1.50752,4.233879 l 0.0482,0.453125 h -3.44695 -3.44694 l -0.10143,-0.514808 c -0.3072,-1.55933 -1.55254,-2.740217 -3.28278,-3.112883 -0.73417,-0.158127 -2.01251,-0.172267 -2.69801,-0.02984 -0.66005,0.137135 -1.39549,0.504869 -1.84851,0.92429 -0.64369,0.595944 -0.95512,1.324211 -1.00844,2.358245 -0.0574,1.112206 0.18605,1.829101 0.84466,2.487708 0.96864,0.968646 2.04754,1.459865 5.64006,2.567906 4.36987,1.3478 5.89231,2.061842 7.32206,3.434152 1.71034,1.64163 2.36176,3.23125 2.36242,5.76484 3e-4,1.17804 -0.10743,1.88022 -0.4451,2.90102 -0.4584,1.38577 -1.06857,2.36512 -2.14481,3.44253 -1.64047,1.64224 -3.68533,2.61586 -6.29712,2.99825 -0.6295,0.0922 -2.89804,0.16582 -3.51897,0.11425 z"
         id="path29" /><path
         style="fill:#000000;stroke-width:3.91319"
         d="m 661,116.5552 c -0.83377,-0.0857 -2.10189,-0.29893 -2.73996,-0.46075 -4.04127,-1.02488 -7.35095,-3.46883 -9.48062,-7.0007 -1.22423,-2.0303 -1.94555,-4.26811 -2.19318,-6.80411 -0.0944,-0.96695 -0.0355,-3.646524 0.0984,-4.47714 0.46007,-2.853738 1.44686,-5.226856 3.06667,-7.375 2.46269,-3.265934 6.1032,-5.346357 10.40825,-5.947952 0.9695,-0.135479 3.51926,-0.154034 4.49673,-0.03272 1.9618,0.243475 3.56695,0.708468 5.21875,1.511818 3.49262,1.698628 6.00212,4.485111 7.30338,8.109482 l 0.16268,0.453125 h -3.60814 -3.60814 l -0.15571,-0.296875 c -0.5065,-0.965651 -1.4276,-2.068615 -2.18782,-2.619785 -1.28767,-0.933573 -2.81507,-1.463066 -4.54231,-1.574646 -1.9466,-0.125752 -3.55741,0.169684 -5.10308,0.93595 -2.69862,1.337842 -4.48854,3.959008 -5.01307,7.341195 -0.13709,0.88394 -0.18368,2.534568 -0.0978,3.464158 0.25446,2.75363 1.21449,4.96354 2.87888,6.62697 1.19581,1.19512 2.54576,1.93135 4.31485,2.35321 0.91114,0.21727 2.8241,0.27466 3.84493,0.11534 2.56745,-0.40069 4.57643,-1.7761 5.78007,-3.9572 l 0.28125,-0.50966 3.60937,-0.002 c 1.98516,-0.001 3.60938,0.0132 3.60938,0.0316 0,0.1075 -0.63069,1.60266 -0.91843,2.17732 -1.41525,2.8264 -3.57845,4.946 -6.48782,6.35706 -1.14273,0.55423 -1.78279,0.79122 -2.94569,1.09069 -1.40373,0.36148 -2.34447,0.47407 -4.14806,0.49642 -0.87656,0.0109 -1.70625,0.008 -1.84375,-0.006 z"
         id="path31" /><path
         style="fill:#000000;stroke-width:3.91319"
         d="M 682.84375,100.53125 V 84.71875 H 692 h 9.15625 v 2.5625 2.5625 h -6 -6 v 3.96875 3.96875 h 5.3125 5.3125 v 2.5 2.5 h -5.3125 -5.3125 V 107 v 4.21875 h 6 6 v 2.5625 2.5625 H 692 682.84375 Z"
         id="path33" /><path
         style="fill:#000000;stroke-width:3.91319"
         d="M 706.96875,100.53068 V 84.717604 l 3.1653,0.0162 3.16529,0.0162 7.16283,10.85652 c 3.93956,5.971086 7.18392,10.857796 7.2097,10.859366 0.0258,0.002 0.0469,-4.89089 0.0469,-10.872136 v -10.875 h 3.125 3.125 v 15.812496 15.8125 l -3.14063,-4.6e-4 -3.14062,-4.5e-4 -7.11867,-10.76517 c -3.91526,-5.92084 -7.15667,-10.806349 -7.20312,-10.856684 -0.071,-0.0769 -0.0845,1.642148 -0.0845,10.765624 v 10.85714 h -3.15625 -3.15625 z"
         id="path35" /><path
         style="fill:#000000;stroke-width:3.91319"
         d="m 738.50603,115.92187 c 0.0851,-0.23203 2.63904,-7.34062 5.67545,-15.79687 l 5.52073,-15.375 3.68034,-0.01611 3.68033,-0.01611 5.64933,15.73487 c 3.10713,8.65417 5.66249,15.77026 5.67858,15.81354 0.0233,0.0627 -0.64454,0.0754 -3.2977,0.0625 l -3.32696,-0.0162 -1.03932,-3.01512 -1.03931,-3.01511 -6.32225,-5.1e-4 -6.32225,-5.1e-4 -0.1006,0.29687 c -0.0553,0.16329 -0.52619,1.52735 -1.04636,3.03125 l -0.94576,2.73438 h -3.29948 -3.29949 z m 19.46272,-10.66784 c 0,-0.0546 -4.51368,-13.069361 -4.56416,-13.16028 -0.0408,-0.07347 -0.0676,-0.0532 -0.12414,0.09375 -0.16266,0.423107 -4.4992,12.99285 -4.4992,13.04124 0,0.0289 2.06719,0.0525 4.59375,0.0525 2.52656,0 4.59375,-0.0122 4.59375,-0.0272 z"
         id="path37" /><path
         style="fill:#000000;stroke-width:3.91319"
         d="M 772.78125,100.5625 V 84.78125 h 6.52463 c 4.07966,0 6.76717,0.02446 7.17187,0.06527 3.88825,0.392115 6.97218,2.259436 8.44933,5.116085 0.70377,1.361012 0.97064,2.42252 1.0229,4.068643 0.039,1.227816 -0.0241,1.880586 -0.27467,2.84375 -0.43257,1.662537 -1.24915,3.07222 -2.46055,4.247712 -0.99692,0.96737 -2.08583,1.60993 -3.62101,2.13674 -0.42969,0.14745 -0.77513,0.29432 -0.76765,0.32637 0.007,0.0321 1.69952,2.91571 3.76008,6.40811 l 3.74648,6.34982 -3.63508,-0.001 -3.63508,-10e-4 -3.47389,-6.13963 -3.47389,-6.13962 -1.54174,-0.0167 -1.54173,-0.0167 v 6.15734 6.15734 h -3.125 -3.125 z M 786.25,99.106159 c 0.88604,-0.24575 1.48801,-0.578774 2.03032,-1.123235 0.54639,-0.548554 0.85089,-1.093712 1.07264,-1.920424 0.18272,-0.681215 0.19844,-2.220035 0.0294,-2.875 -0.41348,-1.601789 -1.43688,-2.605052 -3.10107,-3.040082 -0.51065,-0.133487 -0.6615,-0.139795 -3.89063,-0.162686 l -3.35937,-0.02381 v 4.663642 4.663641 l 3.35937,-0.02168 c 3.24264,-0.02093 3.37675,-0.0265 3.85938,-0.16036 z"
         id="path39" /><path
         style="fill:#000000;stroke-width:3.91319"
         d="M 801.78125,100.5625 V 84.78125 h 3.15625 3.15625 v 15.78125 15.78125 h -3.15625 -3.15625 z"
         id="path41" /><path
         style="fill:#000000;stroke-width:3.91319"
         d="m 827.5,116.58982 c -4.98507,-0.46362 -9.3865,-3.07643 -12.0485,-7.15232 -1.88445,-2.88535 -2.72501,-6.18263 -2.53775,-9.954891 0.16468,-3.317417 1.18546,-6.199304 3.11329,-8.789453 2.29356,-3.08154 5.72024,-5.251895 9.52946,-6.035672 2.98315,-0.613807 6.207,-0.42379 9.01136,0.531139 3.91301,1.332444 7.11964,4.140153 8.95692,7.842627 0.78379,1.579495 1.2359,3.017387 1.51601,4.821526 0.18702,1.204523 0.20425,3.859294 0.0326,5.022224 -0.53414,3.61885 -1.9377,6.52035 -4.34904,8.99051 -2.46147,2.52153 -5.7191,4.14177 -9.31811,4.63454 -0.87245,0.11945 -3.04922,0.16948 -3.90625,0.0898 z m 2.90789,-5.62437 c 3.77005,-0.46843 6.49514,-2.72125 7.71308,-6.37639 0.89411,-2.68329 0.83026,-6.240798 -0.15659,-8.72505 -1.23014,-3.096695 -3.49933,-5.022441 -6.72764,-5.709399 -0.80691,-0.171703 -2.5674,-0.234765 -3.50326,-0.125489 -5.15242,0.601625 -8.38973,4.617865 -8.38973,10.408378 0,4.96119 2.32592,8.67185 6.30354,10.05637 0.5716,0.19896 1.60934,0.43252 2.19646,0.49434 0.49795,0.0524 2.07134,0.0385 2.56414,-0.0228 z"
         id="path43" /></g></g></svg>
