<?xml version="1.0" encoding="UTF-8" standalone="no"?>
<!-- Created with Inkscape (http://www.inkscape.org/) -->

<svg
   width="260mm"
   height="450mm"
   viewBox="0 0 260 450"
   version="1.1"
   id="svg1"
   xml:space="preserve"
   inkscape:export-filename="200asientosescenario.svg"
   inkscape:export-xdpi="96"
   inkscape:export-ydpi="96"
   xmlns:inkscape="http://www.inkscape.org/namespaces/inkscape"
   xmlns:sodipodi="http://sodipodi.sourceforge.net/DTD/sodipodi-0.dtd"
   xmlns="http://www.w3.org/2000/svg"
   xmlns:svg="http://www.w3.org/2000/svg"><sodipodi:namedview
     id="namedview1"
     pagecolor="#ffffff"
     bordercolor="#000000"
     borderopacity="0.25"
     inkscape:showpageshadow="2"
     inkscape:pageopacity="0.0"
     inkscape:pagecheckerboard="0"
     inkscape:deskcolor="#d1d1d1"
     inkscape:document-units="mm" /><defs
     id="defs1" /><g
     inkscape:label="Capa 1"
     inkscape:groupmode="layer"
     id="layer1"><path
       style="fill:#e9afdd;stroke-width:4.14147"
       d="m 86.087326,63.319894 c -0.30092,-0.14835 -0.6567,-0.56301 -0.73978,-0.86219 -0.0474,-0.17086 -0.0703,-2.53768 -0.0705,-7.30624 l -2.7e-4,-7.05352 0.18483,-0.35379 c 0.13456,-0.25758 0.27256,-0.40804 0.50744,-0.55326 l 0.32262,-0.19946 45.778094,-0.0194 c 25.17797,-0.0107 45.93419,-10e-4 46.12495,0.0212 0.44222,0.0518 0.91639,0.36362 1.10376,0.72578 0.13562,0.26209 0.13708,0.33173 0.15515,7.40833 0.0202,7.89335 0.0427,7.44848 -0.39969,7.90278 -0.11762,0.1208 -0.30965,0.25988 -0.42672,0.30908 -0.17818,0.0749 -7.71363,0.0892 -46.26902,0.0879 -42.071904,-10e-4 -46.074714,-0.0107 -46.270714,-0.10729 z"
       id="path45" /></g></svg>
